<?xml version="1.0" encoding="UTF-8" standalone="no"?>
<svg
   xmlns:dc="http://purl.org/dc/elements/1.1/"
   xmlns:cc="http://creativecommons.org/ns#"
   xmlns:rdf="http://www.w3.org/1999/02/22-rdf-syntax-ns#"
   xmlns:svg="http://www.w3.org/2000/svg"
   xmlns="http://www.w3.org/2000/svg"
   xmlns:sodipodi="http://sodipodi.sourceforge.net/DTD/sodipodi-0.dtd"
   xmlns:inkscape="http://www.inkscape.org/namespaces/inkscape"
   inkscape:version="1.0 (4035a4fb49, 2020-05-01)"
   sodipodi:docname="pallete.svg"
   id="svg6"
   version="1.1"
   height="157.25"
   width="157.25"
   fill="#000000"
   viewBox="0 0 209.66667 209.66667">
  <metadata
     id="metadata12">
    <rdf:RDF>
      <cc:Work
         rdf:about="">
        <dc:format>image/svg+xml</dc:format>
        <dc:type
           rdf:resource="http://purl.org/dc/dcmitype/StillImage" />
      </cc:Work>
    </rdf:RDF>
  </metadata>
  <defs
     id="defs10" />
  <sodipodi:namedview
     inkscape:current-layer="svg6"
     inkscape:cy="94.563713"
     inkscape:cx="52.183658"
     inkscape:zoom="3.4417532"
     showgrid="false"
     id="namedview8"
     inkscape:window-height="480"
     inkscape:window-width="640"
     inkscape:pageshadow="2"
     inkscape:pageopacity="0"
     guidetolerance="10"
     gridtolerance="10"
     objecttolerance="10"
     borderopacity="1"
     bordercolor="#666666"
     pagecolor="#ffffff" />
  <path
     id="path2"
     fill="none"
     d="M 0,0 H 24 V 24 H 0 Z" />
  <path
     inkscape:export-ydpi="96"
     inkscape:export-xdpi="96"
     style="stroke-width:11.4815;fill:#ffffff;opacity:0.65507246"
     id="path4"
     d="M 106.33333,3 C 49.27037,3 3,49.27037 3,106.33333 c 0,57.06297 46.27037,103.33334 103.33333,103.33334 9.52963,0 17.22223,-7.6926 17.22223,-17.22223 0,-4.47777 -1.72223,-8.49629 -4.47778,-11.59629 -2.64074,-2.98519 -4.36297,-7.00371 -4.36297,-11.36667 0,-9.52963 7.6926,-17.22222 17.22223,-17.22222 h 20.32222 c 31.68889,0 57.40741,-25.71852 57.40741,-57.407408 C 209.66667,44.103704 163.3963,3 106.33333,3 Z M 43.185185,106.33333 c -9.529629,0 -17.222222,-7.692589 -17.222222,-17.222219 0,-9.52963 7.692593,-17.222222 17.222222,-17.222222 9.52963,0 17.222222,7.692592 17.222222,17.222222 0,9.52963 -7.692592,17.222219 -17.222222,17.222219 z M 77.62963,60.407407 c -9.52963,0 -17.222223,-7.692592 -17.222223,-17.222222 0,-9.529629 7.692593,-17.222222 17.222223,-17.222222 9.529629,0 17.222222,7.692593 17.222222,17.222222 0,9.52963 -7.692593,17.222222 -17.222222,17.222222 z m 57.40741,0 c -9.52963,0 -17.22223,-7.692592 -17.22223,-17.222222 0,-9.529629 7.6926,-17.222222 17.22223,-17.222222 9.52963,0 17.22222,7.692593 17.22222,17.222222 0,9.52963 -7.69259,17.222222 -17.22222,17.222222 z m 34.44444,45.925923 c -9.52963,0 -17.22222,-7.692589 -17.22222,-17.222219 0,-9.52963 7.69259,-17.222222 17.22222,-17.222222 9.52963,0 17.22222,7.692592 17.22222,17.222222 0,9.52963 -7.69259,17.222219 -17.22222,17.222219 z" />
</svg>
