<?xml version="1.0" encoding="UTF-8" standalone="no"?>
<svg
   xmlns:dc="http://purl.org/dc/elements/1.1/"
   xmlns:cc="http://creativecommons.org/ns#"
   xmlns:rdf="http://www.w3.org/1999/02/22-rdf-syntax-ns#"
   xmlns:svg="http://www.w3.org/2000/svg"
   xmlns="http://www.w3.org/2000/svg"
   xmlns:sodipodi="http://sodipodi.sourceforge.net/DTD/sodipodi-0.dtd"
   xmlns:inkscape="http://www.inkscape.org/namespaces/inkscape"
   inkscape:version="1.0 (4035a4fb49, 2020-05-01)"
   inkscape:export-ydpi="96"
   inkscape:export-xdpi="96"
   inkscape:export-filename="C:\Users\Akhilesh\Documents\GitHub\Websites\My Website\akhilesh-balaji.github.io\Textylic\widget.png"
   sodipodi:docname="widget.svg"
   id="svg6"
   version="1.1"
   height="155.05273"
   width="155.13495"
   fill="#000000"
   viewBox="0 0 77.567474 77.526367">
  <metadata
     id="metadata12">
    <rdf:RDF>
      <cc:Work
         rdf:about="">
        <dc:format>image/svg+xml</dc:format>
        <dc:type
           rdf:resource="http://purl.org/dc/dcmitype/StillImage" />
      </cc:Work>
    </rdf:RDF>
  </metadata>
  <defs
     id="defs10" />
  <sodipodi:namedview
     inkscape:current-layer="svg6"
     inkscape:cy="87.187265"
     inkscape:cx="153.19936"
     inkscape:zoom="2.0852355"
     showgrid="false"
     id="namedview8"
     inkscape:window-height="480"
     inkscape:window-width="640"
     inkscape:pageshadow="2"
     inkscape:pageopacity="0"
     guidetolerance="10"
     gridtolerance="10"
     objecttolerance="10"
     borderopacity="1"
     bordercolor="#666666"
     pagecolor="#ffffff" />
  <g
     transform="translate(22.452148,25.700195)"
     id="g891">
    <path
       id="path4"
       style="opacity:1;fill:#ffffff;stroke-width:8.20706"
       d="m 45.373047,37.994141 c -4.51389,0 -8.207031,3.693143 -8.207031,8.207031 v 49.24414 c 0,4.513888 3.693141,8.207028 8.207031,8.207028 h 49.242187 c 4.513888,0 8.207036,-3.693139 8.207036,-8.207028 v -49.24414 c 0,-4.513888 -3.693148,-8.207031 -8.207036,-8.207031 z"
       transform="scale(0.5)" />
    <path
       id="path884"
       style="opacity:0.657971;fill:#ffffff;stroke-width:8.20706"
       d="m -36.697266,37.994141 c -4.51389,0 -8.207031,3.693143 -8.207031,8.207031 v 49.24414 c 0,4.513888 3.693141,8.207028 8.207031,8.207028 h 49.242188 c 4.513888,0 8.207031,-3.693139 8.207031,-8.207028 v -49.24414 c 0,-4.513888 -3.693143,-8.207031 -8.207031,-8.207031 z"
       transform="scale(0.5)" />
    <path
       id="path879"
       style="opacity:0.385507;fill:#ffffff;stroke-width:8.20706"
       d="m -36.697266,-44.076172 c -4.51389,0 -8.207031,3.693143 -8.207031,8.207031 v 49.242188 c 0,4.513888 3.693141,8.207031 8.207031,8.207031 h 49.242188 c 4.513888,0 8.207031,-3.693143 8.207031,-8.207031 v -49.242188 c 0,-4.513888 -3.693143,-8.207031 -8.207031,-8.207031 z"
       transform="scale(0.5)" />
    <path
       id="path877"
       style="opacity:0.231884;fill:#ffffff;stroke-width:8.20706"
       d="m 67.205078,-51.400391 c -2.11332,0 -4.227747,0.800013 -5.828125,2.400391 l -34.878906,34.798828 c -3.200758,3.200758 -3.200758,8.3695554 0,11.5703126 L 61.376953,32.25 c 3.200756,3.200758 8.371508,3.200758 11.572266,0 L 107.83008,-2.6308594 c 3.20076,-3.2007572 3.20076,-8.3695546 0,-11.5703126 L 73.03125,-49 c -1.600378,-1.600378 -3.712851,-2.400391 -5.826172,-2.400391 z"
       transform="scale(0.5)" />
  </g>
</svg>
